<?xml version="1.0" encoding="UTF-8"?>
<svg id="Layer_1" xmlns="http://www.w3.org/2000/svg" version="1.1" xmlns:xlink="http://www.w3.org/1999/xlink" viewBox="0 0 320.3 370.3">
  <!-- Generator: Adobe Illustrator 30.2.1, SVG Export Plug-In . SVG Version: 2.1.1 Build 1)  -->
  <defs>
    <style>
      .st0 {
        stroke-width: .5px;
      }

      .st0, .st1, .st2 {
        stroke: #000;
        stroke-miterlimit: 11.3;
      }

      .st0, .st1, .st3 {
        fill: none;
      }

      .st1 {
        stroke-width: 1.1px;
      }

      .st4 {
        font-size: 12.5px;
      }

      .st4, .st5, .st6, .st7, .st8, .st9, .st10, .st11, .st12 {
        isolation: isolate;
      }

      .st4, .st5, .st6, .st7, .st9, .st11 {
        font-weight: 700;
      }

      .st4, .st5, .st7, .st11 {
        font-family: AGaramondPro-Bold, 'Adobe Garamond Pro';
      }

      .st5 {
        font-size: 8px;
      }

      .st2 {
        fill: #fff;
        stroke-width: .6px;
      }

      .st6 {
        font-size: 8.2px;
      }

      .st6, .st9 {
        font-family: AGaramondPro-BoldItalic, 'Adobe Garamond Pro';
      }

      .st6, .st9, .st10, .st12 {
        font-style: italic;
      }

      .st7, .st9 {
        font-size: 7.8px;
      }

      .st13 {
        clip-path: url(#clippath-1);
      }

      .st10 {
        font-size: 6.5px;
      }

      .st10, .st12 {
        font-family: AGaramondPro-Italic, 'Adobe Garamond Pro';
      }

      .st11 {
        font-size: 10px;
      }

      .st14 {
        clip-path: url(#clippath);
      }

      .st12 {
        font-size: 7px;
      }
    </style>
    <clipPath id="clippath">
      <rect class="st3" x="107" y="76.1" width="49.8" height="66.8"/>
    </clipPath>
    <clipPath id="clippath-1">
      <rect class="st3" x="165.3" y="76.1" width="48.1" height="66.8"/>
    </clipPath>
  </defs>
  <path class="st1" d="M160.2,28v8H28.8"/>
  <rect class="st2" x="93.2" y="8" width="62" height="14"/>
  <g class="st8">
    <text class="st5" transform="translate(110.8 18.2)"><tspan x="0" y="0">Etelvina</tspan></text>
  </g>
  <rect class="st2" x="165.2" y="8" width="62" height="14"/>
  <g class="st8">
    <text class="st5" transform="translate(185.2 18.2)"><tspan x="0" y="0">Edmar</tspan></text>
  </g>
  <path class="st1" d="M124.2,22v3l36,3"/>
  <path class="st1" d="M196.2,22v3l-36,3"/>
  <path class="st1" d="M28.8,36v25.8"/>
  <line class="st1" x1="28.8" y1="48.5" x2="43.4" y2="48.5"/>
  <rect class="st2" x="43.4" y="43.9" width="256.9" height="9.3"/>
  <g class="st8">
    <text class="st7" transform="translate(53.2 51.2)"><tspan x="0" y="0">Alba Lúcia de Castro</tspan></text>
    <text class="st9" transform="translate(119.5 51.2)"><tspan x="0" y="0" xml:space="preserve"> / Deusdete Antônio Alves</tspan></text>
  </g>
  <line class="st1" x1="28.8" y1="61.8" x2="43.4" y2="61.8"/>
  <rect class="st2" x="43.4" y="57.1" width="256.9" height="9.3"/>
  <g class="st8">
    <text class="st7" transform="translate(53.2 64.5)"><tspan x="0" y="0">José Edmar de Castro Cordeiro</tspan></text>
    <text class="st9" transform="translate(152.1 64.5)"><tspan x="0" y="0" xml:space="preserve"> / Perpétua Lúcia Neves Cordeiro</tspan></text>
  </g>
  <rect class="st0" x="107" y="76.1" width="49.8" height="66.8"/>
  <g class="st14">
    <image class="st8" width="896" height="1200" transform="translate(106.9 76.1) scale(0)" xlink:href="genogramafilhosnetosetelvinaedmar-1.png"/>
  </g>
  <rect class="st0" x="165.3" y="76.1" width="48.1" height="66.8"/>
  <g class="st13">
    <image class="st8" width="144" height="200" transform="translate(165.3 76.1) scale(.3)" xlink:href="genogramafilhosnetosetelvinaedmar-2.png"/>
  </g>
  <g class="st8">
    <text class="st10" transform="translate(101.9 152.4)"><tspan x="0" y="0">Alba Lúcia de Castro</tspan></text>
  </g>
  <g class="st8">
    <text class="st10" transform="translate(168.9 152.4)"><tspan x="0" y="0">José Edmar de Castro</tspan></text>
  </g>
  <g class="st8">
    <text class="st4" transform="translate(15 172.4)"><tspan x="0" y="0">Netos de Etelvina e Edmar e seus respectivos cônjuges</tspan></text>
  </g>
  <g class="st8">
    <text class="st6" transform="translate(20 190.4)"><tspan x="0" y="0">Filhos de Alba e Deusdete</tspan></text>
  </g>
  <path class="st1" d="M28.8,193.5v29"/>
  <line class="st1" x1="28.8" y1="200.1" x2="43.4" y2="200.1"/>
  <rect class="st2" x="43.4" y="195.4" width="256.9" height="9.3"/>
  <g class="st8">
    <text class="st7" transform="translate(53.2 202.8)"><tspan x="0" y="0">Siandra Cordeiro Alves de A. Soares</tspan></text>
    <text class="st9" transform="translate(166.6 202.8)"><tspan x="0" y="0" xml:space="preserve"> / Elicio Roberto L. Souza</tspan></text>
  </g>
  <line class="st1" x1="28.8" y1="211.3" x2="43.4" y2="211.3"/>
  <rect class="st2" x="43.4" y="206.6" width="256.9" height="9.3"/>
  <g class="st8">
    <text class="st7" transform="translate(53.2 214)"><tspan x="0" y="0">Simone Cordeiro Alves</tspan></text>
  </g>
  <line class="st1" x1="28.8" y1="222.5" x2="43.4" y2="222.5"/>
  <rect class="st2" x="43.4" y="217.8" width="256.9" height="9.3"/>
  <g class="st8">
    <text class="st7" transform="translate(53.2 225.2)"><tspan x="0" y="0">Janice Cordeiro Alves de Araújo</tspan></text>
    <text class="st9" transform="translate(154.3 225.2)"><tspan x="0" y="0" xml:space="preserve"> / Marcelo Araújo</tspan></text>
  </g>
  <g class="st8">
    <text class="st6" transform="translate(20 234.9)"><tspan x="0" y="0">Filhos de José e Lúcia</tspan></text>
  </g>
  <path class="st1" d="M28.8,238v28.9"/>
  <line class="st1" x1="28.8" y1="244.6" x2="43.4" y2="244.6"/>
  <rect class="st2" x="43.4" y="239.9" width="256.9" height="9.3"/>
  <g class="st8">
    <text class="st7" transform="translate(53.2 247.3)"><tspan x="0" y="0">Lucimar Neves Cordeiro Gomes</tspan></text>
    <text class="st9" transform="translate(154.7 247.3)"><tspan x="0" y="0" xml:space="preserve"> / Marcelo Silva Gomes</tspan></text>
  </g>
  <line class="st1" x1="28.8" y1="255.8" x2="43.4" y2="255.8"/>
  <rect class="st2" x="43.4" y="251.1" width="256.9" height="9.3"/>
  <g class="st8">
    <text class="st7" transform="translate(53.2 258.5)"><tspan x="0" y="0">Edmar Neves Cordeiro</tspan></text>
    <text class="st9" transform="translate(125.3 258.5)"><tspan x="0" y="0" xml:space="preserve"> (Edinho) / Denise Cristina M. Cordeiro</tspan></text>
  </g>
  <line class="st1" x1="28.8" y1="267" x2="43.4" y2="267"/>
  <rect class="st2" x="43.4" y="262.3" width="256.9" height="9.3"/>
  <g class="st8">
    <text class="st7" transform="translate(53.2 269.7)"><tspan x="0" y="0">Leonardo Neves Cordeiro</tspan></text>
  </g>
  <g class="st8">
    <text class="st11" transform="translate(20 281.6)"><tspan x="0" y="0">Bisnetos de Etelvina e Edmar</tspan></text>
  </g>
  <path class="st1" d="M28.8,284.7v40.1"/>
  <line class="st1" x1="28.8" y1="291.3" x2="43.4" y2="291.3"/>
  <rect class="st2" x="43.4" y="286.6" width="256.9" height="9.3"/>
  <g class="st8">
    <text class="st7" transform="translate(53.2 294)"><tspan x="0" y="0">Larissa Neves Cordeiro Gomes</tspan></text>
  </g>
  <line class="st1" x1="28.8" y1="302.5" x2="43.4" y2="302.5"/>
  <rect class="st2" x="43.4" y="297.8" width="256.9" height="9.3"/>
  <g class="st8">
    <text class="st7" transform="translate(53.2 305.2)"><tspan x="0" y="0">Marcela Neves Cordeiro Gomes</tspan></text>
  </g>
  <line class="st1" x1="28.8" y1="313.7" x2="43.4" y2="313.7"/>
  <rect class="st2" x="43.4" y="309" width="256.9" height="9.3"/>
  <g class="st8">
    <text class="st7" transform="translate(53.2 316.4)"><tspan x="0" y="0">Beatriz M. Cordeiro</tspan></text>
  </g>
  <line class="st1" x1="28.8" y1="324.9" x2="43.4" y2="324.9"/>
  <rect class="st2" x="43.4" y="320.2" width="256.9" height="9.3"/>
  <g class="st8">
    <text class="st7" transform="translate(53.2 327.6)"><tspan x="0" y="0">Felipe M. Cordeiro</tspan></text>
  </g>
  <g class="st8">
    <text class="st12" transform="translate(43.4 337.5)"><tspan x="0" y="0">(Renata, Marcella, Fernanda, Beatriz, Felipe e Dylane Olívia)</tspan></text>
  </g>
  <g class="st8">
    <text class="st11" transform="translate(20 350.5)"><tspan x="0" y="0">Trinetos de Etelvina e Edmar</tspan></text>
  </g>
  <path class="st1" d="M28.8,353.6v6.5"/>
  <line class="st1" x1="28.8" y1="360.2" x2="43.4" y2="360.2"/>
  <rect class="st2" x="43.4" y="355.5" width="256.9" height="9.3"/>
  <g class="st8">
    <text class="st7" transform="translate(53.2 362.9)"><tspan x="0" y="0">Helena Neves Cordeiro Gomes da Costa</tspan></text>
  </g>
</svg>