<?xml version="1.0" encoding="UTF-8"?>
<svg id="Layer_1" xmlns="http://www.w3.org/2000/svg" version="1.1" xmlns:xlink="http://www.w3.org/1999/xlink" viewBox="0 0 320.3 396.9">
  <!-- Generator: Adobe Illustrator 30.2.1, SVG Export Plug-In . SVG Version: 2.1.1 Build 1)  -->
  <defs>
    <style>
      .st0 {
        fill: #fff;
      }

      .st0, .st1 {
        stroke-width: .7px;
      }

      .st0, .st1, .st2 {
        stroke: #000;
        stroke-miterlimit: 11.3;
      }

      .st3, .st4 {
        font-family: AGaramondPro-Bold, 'Adobe Garamond Pro';
      }

      .st3, .st4, .st5, .st6, .st7 {
        isolation: isolate;
      }

      .st3, .st4, .st6 {
        font-weight: 700;
      }

      .st3, .st6 {
        font-size: 7.6px;
      }

      .st4 {
        font-size: 8.6px;
      }

      .st1, .st8, .st2 {
        fill: none;
      }

      .st2 {
        stroke-width: 1.2px;
      }

      .st6 {
        font-family: AGaramondPro-BoldItalic, 'Adobe Garamond Pro';
      }

      .st6, .st7 {
        font-style: italic;
      }

      .st9 {
        clip-path: url(#clippath);
      }

      .st7 {
        font-family: AGaramondPro-Italic, 'Adobe Garamond Pro';
        font-size: 7px;
      }
    </style>
    <clipPath id="clippath">
      <rect class="st8" x="45.2" y="262.2" width="230" height="119.7"/>
    </clipPath>
  </defs>
  <rect class="st0" x="89.2" y="14" width="66" height="15"/>
  <g class="st5">
    <text class="st4" transform="translate(96.2 24.7)"><tspan x="0" y="0">Galdina</tspan></text>
  </g>
  <rect class="st0" x="165.2" y="14" width="66" height="15"/>
  <g class="st5">
    <text class="st4" transform="translate(172.2 24.7)"><tspan x="0" y="0">José</tspan></text>
  </g>
  <path class="st2" d="M122.2,29v3l38,3"/>
  <path class="st2" d="M198.2,29v3l-38,3"/>
  <path class="st2" d="M160.2,35v9H28.8v198.1"/>
  <line class="st2" x1="28.8" y1="59.7" x2="43.4" y2="59.7"/>
  <rect class="st0" x="43.4" y="53.4" width="256.9" height="12.5"/>
  <g class="st5">
    <text class="st3" transform="translate(53.2 62.3)"><tspan x="0" y="0">Vitorino Pires de Araújo</tspan></text>
    <text class="st6" transform="translate(128.8 62.3)"><tspan x="0" y="0" xml:space="preserve"> — faleceu ainda criança</tspan></text>
  </g>
  <line class="st2" x1="28.8" y1="77.9" x2="43.4" y2="77.9"/>
  <rect class="st0" x="43.4" y="71.6" width="256.9" height="12.5"/>
  <g class="st5">
    <text class="st3" transform="translate(53.2 80.5)"><tspan x="0" y="0">Manoel Pires de Araújo</tspan></text>
    <text class="st6" transform="translate(125.9 80.5)"><tspan x="0" y="0" xml:space="preserve"> — faleceu ainda criança</tspan></text>
  </g>
  <line class="st2" x1="28.8" y1="96.1" x2="43.4" y2="96.1"/>
  <rect class="st0" x="43.4" y="89.8" width="256.9" height="12.5"/>
  <g class="st5">
    <text class="st3" transform="translate(53.2 98.7)"><tspan x="0" y="0">Luzieta Pires de Araújo</tspan></text>
    <text class="st6" transform="translate(125.2 98.7)"><tspan x="0" y="0" xml:space="preserve"> (Luzia) / José</tspan></text>
  </g>
  <line class="st2" x1="28.8" y1="114.3" x2="43.4" y2="114.3"/>
  <rect class="st0" x="43.4" y="108" width="256.9" height="12.5"/>
  <g class="st5">
    <text class="st3" transform="translate(53.2 116.9)"><tspan x="0" y="0">Uilame Pires de Araújo</tspan></text>
    <text class="st6" transform="translate(124.8 116.9)"><tspan x="0" y="0" xml:space="preserve"> / Terezinha Aguiar</tspan></text>
  </g>
  <line class="st2" x1="28.8" y1="132.4" x2="43.4" y2="132.4"/>
  <rect class="st0" x="43.4" y="126.2" width="256.9" height="12.5"/>
  <g class="st5">
    <text class="st3" transform="translate(53.2 135)"><tspan x="0" y="0">Euzébio Pires de Araújo</tspan></text>
    <text class="st6" transform="translate(127.2 135)"><tspan x="0" y="0" xml:space="preserve"> / Sônia Araujo</tspan></text>
  </g>
  <line class="st2" x1="28.8" y1="150.6" x2="43.4" y2="150.6"/>
  <rect class="st0" x="43.4" y="144.4" width="256.9" height="12.5"/>
  <g class="st5">
    <text class="st3" transform="translate(53.2 153.2)"><tspan x="0" y="0">Raimundo Pires de Araújo</tspan></text>
    <text class="st6" transform="translate(135.4 153.2)"><tspan x="0" y="0" xml:space="preserve"> (Mundico) / Vânia Batista</tspan></text>
  </g>
  <line class="st2" x1="28.8" y1="168.8" x2="43.4" y2="168.8"/>
  <rect class="st0" x="43.4" y="162.6" width="256.9" height="12.5"/>
  <g class="st5">
    <text class="st3" transform="translate(53.2 171.4)"><tspan x="0" y="0">Antônio Pires de Araújo</tspan></text>
    <text class="st6" transform="translate(127.9 171.4)"><tspan x="0" y="0" xml:space="preserve"> (Pires) / Ana Araújo</tspan></text>
  </g>
  <line class="st2" x1="28.8" y1="187" x2="43.4" y2="187"/>
  <rect class="st0" x="43.4" y="180.8" width="256.9" height="12.5"/>
  <g class="st5">
    <text class="st3" transform="translate(53.2 189.6)"><tspan x="0" y="0">Pedro Américo Pires de Araújo</tspan></text>
    <text class="st6" transform="translate(148.3 189.6)"><tspan x="0" y="0" xml:space="preserve"> (Pedrinho) / Sônia Martins</tspan></text>
  </g>
  <line class="st2" x1="28.8" y1="205.2" x2="43.4" y2="205.2"/>
  <rect class="st0" x="43.4" y="199" width="256.9" height="12.5"/>
  <g class="st5">
    <text class="st3" transform="translate(53.2 207.8)"><tspan x="0" y="0">José Humberto Pires de Araújo</tspan></text>
    <text class="st6" transform="translate(149.4 207.8)"><tspan x="0" y="0" xml:space="preserve"> (Zé Pezão) / Tânia Petrillo</tspan></text>
  </g>
  <line class="st2" x1="28.8" y1="223.4" x2="43.4" y2="223.4"/>
  <rect class="st0" x="43.4" y="217.2" width="256.9" height="12.5"/>
  <g class="st5">
    <text class="st3" transform="translate(53.2 226)"><tspan x="0" y="0">Luiz Carlos Pires de Araújo</tspan></text>
    <text class="st6" transform="translate(138.1 226)"><tspan x="0" y="0" xml:space="preserve"> / Lúcia Inês Claver</tspan></text>
  </g>
  <line class="st2" x1="28.8" y1="241.6" x2="43.4" y2="241.6"/>
  <rect class="st0" x="43.4" y="235.3" width="256.9" height="12.5"/>
  <g class="st5">
    <text class="st3" transform="translate(53.2 244.2)"><tspan x="0" y="0">Josina Pires de Araújo</tspan></text>
    <text class="st6" transform="translate(121.4 244.2)"><tspan x="0" y="0" xml:space="preserve"> / Nem</tspan></text>
  </g>
  <rect class="st1" x="45.2" y="262.2" width="230" height="119.7"/>
  <g class="st9">
    <image class="st5" width="1414" height="736" transform="translate(45.2 262.2) scale(.2)" xlink:href="genogramafilhosgaldinajose-1.png"/>
  </g>
  <g class="st5">
    <text class="st7" transform="translate(28.6 390.9)"><tspan x="0" y="0">Raimundo, Luiz, Antônio, Josina, Luziêta, Pedro, Euzébio, Galdina (Santa), Uilame e José Humberto</tspan></text>
  </g>
</svg>