<?xml version="1.0" encoding="UTF-8"?>
<svg id="Layer_1" xmlns="http://www.w3.org/2000/svg" version="1.1" xmlns:xlink="http://www.w3.org/1999/xlink" viewBox="0 0 320.3 212.7">
  <!-- Generator: Adobe Illustrator 30.2.1, SVG Export Plug-In . SVG Version: 2.1.1 Build 1)  -->
  <defs>
    <style>
      .st0 {
        clip-path: url(#clippath-4);
      }

      .st1, .st2 {
        font-family: AGaramondPro-Bold, 'Adobe Garamond Pro';
      }

      .st1, .st2, .st3, .st4, .st5 {
        isolation: isolate;
      }

      .st1, .st2, .st5 {
        font-weight: 700;
      }

      .st1, .st5 {
        font-size: 7.6px;
      }

      .st6 {
        stroke-width: 1.1px;
      }

      .st6, .st7, .st8 {
        stroke: #000;
        stroke-miterlimit: 11.3;
      }

      .st6, .st9, .st8 {
        fill: none;
      }

      .st2 {
        font-size: 8px;
      }

      .st7 {
        fill: #fff;
      }

      .st7, .st8 {
        stroke-width: .6px;
      }

      .st10 {
        clip-path: url(#clippath-1);
      }

      .st3 {
        font-family: AGaramondPro-Italic, 'Adobe Garamond Pro';
        font-size: 6.6px;
      }

      .st3, .st5 {
        font-style: italic;
      }

      .st11 {
        clip-path: url(#clippath-5);
      }

      .st5 {
        font-family: AGaramondPro-BoldItalic, 'Adobe Garamond Pro';
      }

      .st12 {
        clip-path: url(#clippath-3);
      }

      .st13 {
        clip-path: url(#clippath-2);
      }

      .st14 {
        clip-path: url(#clippath);
      }
    </style>
    <clipPath id="clippath">
      <rect class="st9" x="61.9" y="162.1" width="18.6" height="40"/>
    </clipPath>
    <clipPath id="clippath-1">
      <rect class="st9" x="86.5" y="162.1" width="22.6" height="40"/>
    </clipPath>
    <clipPath id="clippath-2">
      <rect class="st9" x="115.1" y="162.1" width="29.5" height="40"/>
    </clipPath>
    <clipPath id="clippath-3">
      <rect class="st9" x="150.7" y="162.1" width="27.1" height="40"/>
    </clipPath>
    <clipPath id="clippath-4">
      <rect class="st9" x="183.8" y="162.1" width="26.5" height="40"/>
    </clipPath>
    <clipPath id="clippath-5">
      <rect class="st9" x="216.3" y="162.1" width="42.1" height="40"/>
    </clipPath>
  </defs>
  <rect class="st7" x="83.2" y="6" width="72" height="14"/>
  <g class="st4">
    <text class="st2" transform="translate(89.2 15.8)"><tspan x="0" y="0">Tomázia</tspan></text>
  </g>
  <rect class="st7" x="165.2" y="6" width="72" height="14"/>
  <g class="st4">
    <text class="st2" transform="translate(171.2 15.8)"><tspan x="0" y="0">Manoel Divino</tspan></text>
  </g>
  <path class="st6" d="M119.2,20v3l41,3"/>
  <path class="st6" d="M201.2,20v3l-41,3"/>
  <path class="st6" d="M160.2,26v8H28.8v109.9"/>
  <g>
    <line class="st6" x1="28.8" y1="46" x2="43.4" y2="46"/>
    <rect class="st7" x="43.4" y="41.2" width="256.9" height="9.6"/>
    <g class="st4">
      <text class="st1" transform="translate(53.2 48.6)"><tspan x="0" y="0">Shirley Florence de Araújo Pires</tspan></text>
      <text class="st5" transform="translate(152.4 48.6)"><tspan x="0" y="0" xml:space="preserve"> (Nazinha) (solteira)</tspan></text>
    </g>
  </g>
  <g>
    <line class="st6" x1="28.8" y1="58.7" x2="43.4" y2="58.7"/>
    <rect class="st7" x="43.4" y="53.9" width="256.9" height="9.6"/>
    <g class="st4">
      <text class="st1" transform="translate(53.2 61.3)"><tspan x="0" y="0">Nevileu de Marisa de Araújo Pires</tspan></text>
      <text class="st5" transform="translate(158.2 61.3)"><tspan x="0" y="0" xml:space="preserve"> (Dazinha) (solteira)</tspan></text>
    </g>
  </g>
  <g>
    <line class="st6" x1="28.8" y1="71.3" x2="43.4" y2="71.3"/>
    <rect class="st7" x="43.4" y="66.5" width="256.9" height="9.6"/>
    <g class="st4">
      <text class="st1" transform="translate(53.2 73.9)"><tspan x="0" y="0">Leônidas de Araújo Pires</tspan></text>
      <text class="st5" transform="translate(130.4 73.9)"><tspan x="0" y="0" xml:space="preserve"> (Leôní) (solteiro)</tspan></text>
    </g>
  </g>
  <g>
    <line class="st6" x1="28.8" y1="84" x2="43.4" y2="84"/>
    <rect class="st7" x="43.4" y="79.2" width="256.9" height="9.6"/>
    <g class="st4">
      <text class="st1" transform="translate(53.2 86.6)"><tspan x="0" y="0">Stela Maris de Araújo Pires</tspan></text>
      <text class="st5" transform="translate(136.8 86.6)"><tspan x="0" y="0" xml:space="preserve"> (Fiinha) (solteira)</tspan></text>
    </g>
  </g>
  <g>
    <line class="st6" x1="28.8" y1="96.7" x2="43.4" y2="96.7"/>
    <rect class="st7" x="43.4" y="91.9" width="256.9" height="9.6"/>
    <g class="st4">
      <text class="st1" transform="translate(53.2 99.3)"><tspan x="0" y="0">João Bosco de Araújo Pires</tspan></text>
      <text class="st5" transform="translate(136.7 99.3)"><tspan x="0" y="0" xml:space="preserve"> (Bosco) / Marina Pereira de Araújo</tspan></text>
    </g>
  </g>
  <g>
    <line class="st6" x1="28.8" y1="109.4" x2="43.4" y2="109.4"/>
    <rect class="st7" x="43.4" y="104.6" width="256.9" height="9.6"/>
    <g class="st4">
      <text class="st1" transform="translate(53.2 112)"><tspan x="0" y="0">Mércia Hidelma de Araújo Lopes</tspan></text>
      <text class="st5" transform="translate(155.7 112)"><tspan x="0" y="0" xml:space="preserve"> / José Luiz Lopes da Silva (Zezinho)</tspan></text>
    </g>
  </g>
  <g>
    <line class="st6" x1="28.8" y1="122.1" x2="43.4" y2="122.1"/>
    <rect class="st7" x="43.4" y="117.3" width="256.9" height="9.6"/>
    <g class="st4">
      <text class="st1" transform="translate(53.2 124.7)"><tspan x="0" y="0">Luiz Carlos de Araújo Pires</tspan></text>
      <text class="st5" transform="translate(138.1 124.7)"><tspan x="0" y="0" xml:space="preserve"> (solteiro)</tspan></text>
    </g>
  </g>
  <g>
    <g>
      <line class="st6" x1="28.8" y1="143.4" x2="43.4" y2="143.4"/>
      <rect class="st7" x="43.4" y="130" width="256.9" height="26.8"/>
    </g>
    <g class="st4">
      <text class="st1" transform="translate(53.2 136.6)"><tspan x="0" y="0">Francisco Soares da Silva (adotivo)</tspan></text>
    </g>
    <g class="st4">
      <text class="st5" transform="translate(53.2 144.2)"><tspan x="0" y="0">/ Maria Domingas da Silva (1º casamento)</tspan></text>
    </g>
    <g class="st4">
      <text class="st5" transform="translate(53.2 153.8)"><tspan x="0" y="0">/ Conceição (2º casamento)</tspan></text>
    </g>
  </g>
  <rect class="st8" x="61.9" y="162.1" width="18.6" height="40"/>
  <g class="st14">
    <image class="st4" width="490" height="1052" transform="translate(61.9 162.1) scale(0)" xlink:href="genogramafilhostomaziamanoel-1.png"/>
  </g>
  <rect class="st8" x="86.5" y="162.1" width="22.6" height="40"/>
  <g class="st10">
    <image class="st4" width="943" height="1668" transform="translate(86.5 162.1) scale(0)" xlink:href="genogramafilhostomaziamanoel-2.png"/>
  </g>
  <rect class="st8" x="115.1" y="162.1" width="29.5" height="40"/>
  <g class="st13">
    <image class="st4" width="492" height="667" transform="translate(115.2 162.1) scale(0)" xlink:href="genogramafilhostomaziamanoel-3.png"/>
  </g>
  <rect class="st8" x="150.7" y="162.1" width="27.1" height="40"/>
  <g class="st12">
    <image class="st4" width="758" height="1118" transform="translate(150.6 162.1) scale(0)" xlink:href="genogramafilhostomaziamanoel-4.png"/>
  </g>
  <rect class="st8" x="183.8" y="162.1" width="26.5" height="40"/>
  <g class="st0">
    <image class="st4" width="1021" height="1540" transform="translate(183.8 162.1) scale(0)" xlink:href="genogramafilhostomaziamanoel-5.png"/>
  </g>
  <rect class="st8" x="216.3" y="162.1" width="42.1" height="40"/>
  <g class="st11">
    <image class="st4" width="2482" height="2358" transform="translate(216.3 162.1) scale(0)" xlink:href="genogramafilhostomaziamanoel-6.png"/>
  </g>
  <g class="st4">
    <text class="st3" transform="translate(64.5 208.1)"><tspan x="0" y="0">Sirley</tspan></text>
  </g>
  <g class="st4">
    <text class="st3" transform="translate(85.7 208.1)"><tspan x="0" y="0">Nevileude</tspan></text>
  </g>
  <g class="st4">
    <text class="st3" transform="translate(117.9 208.1)"><tspan x="0" y="0">Estelamar</tspan></text>
  </g>
  <g class="st4">
    <text class="st3" transform="translate(155.6 208.1)"><tspan x="0" y="0">Mércia</tspan></text>
  </g>
  <g class="st4">
    <text class="st3" transform="translate(184.5 208.1)"><tspan x="0" y="0">João Bosco</tspan></text>
  </g>
  <g class="st4">
    <text class="st3" transform="translate(231.7 208.1)"><tspan x="0" y="0">Luiz</tspan></text>
  </g>
</svg>