<?xml version="1.0" encoding="UTF-8"?>
<svg id="Layer_1" xmlns="http://www.w3.org/2000/svg" version="1.1" viewBox="0 0 320.3 297.8">
  <defs>
    <style>
      .cb  { font-family: AGaramondPro-Bold, "Adobe Garamond Pro"; font-size: 6.8px; font-weight: 700; }
      .ttl { font-family: AGaramondPro-Bold, "Adobe Garamond Pro"; font-size: 11.5px; font-weight: 700; }
      .nm1 { font-family: AGaramondPro-Bold, "Adobe Garamond Pro"; font-size: 6.4px; font-weight: 700; }
      .sp1 { font-family: AGaramondPro-BoldItalic, "Adobe Garamond Pro"; font-size: 6.4px; font-style: italic; font-weight: 700; }
      .nm { font-family: AGaramondPro-Bold, "Adobe Garamond Pro"; font-size: 7.4px; font-weight: 700; }
      .box { fill: #fff; stroke: #000; stroke-width: .5px; stroke-miterlimit: 11.3; }
      .ln { fill: none; stroke: #000; stroke-width: 0.9px; stroke-miterlimit: 11.3; }
    </style>
  </defs>
  <path class="ln" d="M28.8,14.0v264.2"/>
  <line class="ln" x1="28.8" y1="20.6" x2="43.4" y2="20.6"/>
  <rect class="box" x="43.4" y="15.9" width="256.9" height="9.3"/>
  <text class="nm" transform="translate(53.2 23.2)"><tspan x="0" y="0">Acacia da Silva</tspan></text>
  <line class="ln" x1="28.8" y1="31.8" x2="43.4" y2="31.8"/>
  <rect class="box" x="43.4" y="27.1" width="256.9" height="9.3"/>
  <text class="nm" transform="translate(53.2 34.5)"><tspan x="0" y="0">Antônio da Silva</tspan></text>
  <line class="ln" x1="28.8" y1="43.0" x2="43.4" y2="43.0"/>
  <rect class="box" x="43.4" y="38.3" width="256.9" height="9.3"/>
  <text class="nm" transform="translate(53.2 45.7)"><tspan x="0" y="0">Aurilene da Silva</tspan></text>
  <line class="ln" x1="28.8" y1="54.2" x2="43.4" y2="54.2"/>
  <rect class="box" x="43.4" y="49.5" width="256.9" height="9.3"/>
  <text class="nm" transform="translate(53.2 56.9)"><tspan x="0" y="0">Aurélio Oliveira da Cunha</tspan></text>
  <line class="ln" x1="28.8" y1="65.4" x2="43.4" y2="65.4"/>
  <rect class="box" x="43.4" y="60.7" width="256.9" height="9.3"/>
  <text class="nm" transform="translate(53.2 68.1)"><tspan x="0" y="0">Klaudemar Oliveira</tspan></text>
  <line class="ln" x1="28.8" y1="76.6" x2="43.4" y2="76.6"/>
  <rect class="box" x="43.4" y="71.9" width="256.9" height="9.3"/>
  <text class="nm" transform="translate(53.2 79.3)"><tspan x="0" y="0">Kialucia Oliveira</tspan></text>
  <line class="ln" x1="28.8" y1="87.8" x2="43.4" y2="87.8"/>
  <rect class="box" x="43.4" y="83.1" width="256.9" height="9.3"/>
  <text class="nm" transform="translate(53.2 90.5)"><tspan x="0" y="0">Edna da Silva</tspan></text>
  <line class="ln" x1="28.8" y1="99.0" x2="43.4" y2="99.0"/>
  <rect class="box" x="43.4" y="94.3" width="256.9" height="9.3"/>
  <text class="nm" transform="translate(53.2 101.7)"><tspan x="0" y="0">Leila da Silva</tspan></text>
  <line class="ln" x1="28.8" y1="110.2" x2="43.4" y2="110.2"/>
  <rect class="box" x="43.4" y="105.5" width="256.9" height="9.3"/>
  <text class="nm" transform="translate(53.2 112.9)"><tspan x="0" y="0">Osmailton Barros Mundoco</tspan></text>
  <line class="ln" x1="28.8" y1="121.4" x2="43.4" y2="121.4"/>
  <rect class="box" x="43.4" y="116.7" width="256.9" height="9.3"/>
  <text class="nm" transform="translate(53.2 124.1)"><tspan x="0" y="0">Osmilton Barros Mundoco</tspan></text>
  <line class="ln" x1="28.8" y1="132.6" x2="43.4" y2="132.6"/>
  <rect class="box" x="43.4" y="127.9" width="256.9" height="9.3"/>
  <text class="nm" transform="translate(53.2 135.3)"><tspan x="0" y="0">Olailton Barros Mundoco</tspan></text>
  <line class="ln" x1="28.8" y1="143.8" x2="43.4" y2="143.8"/>
  <rect class="box" x="43.4" y="139.1" width="256.9" height="9.3"/>
  <text class="nm" transform="translate(53.2 146.5)"><tspan x="0" y="0">Adailton Barros Mundoco</tspan></text>
  <line class="ln" x1="28.8" y1="155.0" x2="43.4" y2="155.0"/>
  <rect class="box" x="43.4" y="150.3" width="256.9" height="9.3"/>
  <text class="nm" transform="translate(53.2 157.7)"><tspan x="0" y="0">Rosmirene B. Oliveira Amaral</tspan></text>
  <line class="ln" x1="28.8" y1="166.2" x2="43.4" y2="166.2"/>
  <rect class="box" x="43.4" y="161.5" width="256.9" height="9.3"/>
  <text class="nm" transform="translate(53.2 168.9)"><tspan x="0" y="0">Adelson Oliveira Becman</tspan></text>
  <line class="ln" x1="28.8" y1="177.4" x2="43.4" y2="177.4"/>
  <rect class="box" x="43.4" y="172.7" width="256.9" height="9.3"/>
  <text class="nm" transform="translate(53.2 180.1)"><tspan x="0" y="0">Diana Oliveira Becman</tspan></text>
  <line class="ln" x1="28.8" y1="188.6" x2="43.4" y2="188.6"/>
  <rect class="box" x="43.4" y="183.9" width="256.9" height="9.3"/>
  <text class="nm" transform="translate(53.2 191.3)"><tspan x="0" y="0">Marlene Oliveira Becman</tspan></text>
  <line class="ln" x1="28.8" y1="199.8" x2="43.4" y2="199.8"/>
  <rect class="box" x="43.4" y="195.1" width="256.9" height="9.3"/>
  <text class="nm" transform="translate(53.2 202.5)"><tspan x="0" y="0">Rosa Oliveira Becman</tspan></text>
  <line class="ln" x1="28.8" y1="211.0" x2="43.4" y2="211.0"/>
  <rect class="box" x="43.4" y="206.3" width="256.9" height="9.3"/>
  <text class="nm" transform="translate(53.2 213.7)"><tspan x="0" y="0">Sinomar Oliveira Becman</tspan></text>
  <line class="ln" x1="28.8" y1="222.2" x2="43.4" y2="222.2"/>
  <rect class="box" x="43.4" y="217.5" width="256.9" height="9.3"/>
  <text class="nm" transform="translate(53.2 224.9)"><tspan x="0" y="0">Vilmar Oliveira Becman</tspan></text>
  <line class="ln" x1="28.8" y1="233.4" x2="43.4" y2="233.4"/>
  <rect class="box" x="43.4" y="228.7" width="256.9" height="9.3"/>
  <text class="nm" transform="translate(53.2 236.1)"><tspan x="0" y="0">Manoel Barros de Oliveira</tspan></text>
  <line class="ln" x1="28.8" y1="244.6" x2="43.4" y2="244.6"/>
  <rect class="box" x="43.4" y="239.9" width="256.9" height="9.3"/>
  <text class="nm" transform="translate(53.2 247.3)"><tspan x="0" y="0">Marcelha Barros da Glória</tspan></text>
  <line class="ln" x1="28.8" y1="255.8" x2="43.4" y2="255.8"/>
  <rect class="box" x="43.4" y="251.1" width="256.9" height="9.3"/>
  <text class="nm" transform="translate(53.2 258.5)"><tspan x="0" y="0">Rosimeire Pires</tspan></text>
  <line class="ln" x1="28.8" y1="267.0" x2="43.4" y2="267.0"/>
  <rect class="box" x="43.4" y="262.3" width="256.9" height="9.3"/>
  <text class="nm" transform="translate(53.2 269.7)"><tspan x="0" y="0">Ricardo Pires</tspan></text>
  <line class="ln" x1="28.8" y1="278.2" x2="43.4" y2="278.2"/>
  <rect class="box" x="43.4" y="273.5" width="256.9" height="9.3"/>
  <text class="nm" transform="translate(53.2 280.9)"><tspan x="0" y="0">Solange Pires</tspan></text>
</svg>