<?xml version="1.0" encoding="UTF-8"?>
<svg id="Layer_1" xmlns="http://www.w3.org/2000/svg" version="1.1" xmlns:xlink="http://www.w3.org/1999/xlink" viewBox="0 0 320.3 432">
  <!-- Generator: Adobe Illustrator 30.2.1, SVG Export Plug-In . SVG Version: 2.1.1 Build 1)  -->
  <defs>
    <style>
      .st0 {
        clip-path: url(#clippath-4);
      }

      .st1 {
        font-size: 7.6px;
      }

      .st1, .st2 {
        font-family: AGaramondPro-Bold, 'Adobe Garamond Pro';
      }

      .st1, .st2, .st3, .st4, .st5 {
        isolation: isolate;
      }

      .st1, .st2, .st4 {
        font-weight: 700;
      }

      .st2, .st4 {
        font-size: 6.8px;
      }

      .st6, .st7, .st8 {
        fill: none;
      }

      .st7, .st9 {
        stroke-width: .5px;
      }

      .st7, .st9, .st8 {
        stroke: #000;
        stroke-miterlimit: 11.3;
      }

      .st10 {
        clip-path: url(#clippath-1);
      }

      .st11 {
        clip-path: url(#clippath-5);
      }

      .st4 {
        font-family: AGaramondPro-BoldItalic, 'Adobe Garamond Pro';
      }

      .st4, .st5 {
        font-style: italic;
      }

      .st9 {
        fill: #fff;
      }

      .st12 {
        clip-path: url(#clippath-3);
      }

      .st5 {
        font-family: AGaramondPro-Italic, 'Adobe Garamond Pro';
        font-size: 5.6px;
      }

      .st13 {
        clip-path: url(#clippath-2);
      }

      .st14 {
        clip-path: url(#clippath);
      }

      .st8 {
        stroke-width: .9px;
      }
    </style>
    <clipPath id="clippath">
      <rect class="st6" x="8" y="338.1" width="36.8" height="66.1"/>
    </clipPath>
    <clipPath id="clippath-1">
      <rect class="st6" x="48.3" y="338.1" width="35.7" height="66.1"/>
    </clipPath>
    <clipPath id="clippath-2">
      <rect class="st6" x="87.5" y="338.1" width="31.5" height="66.1"/>
    </clipPath>
    <clipPath id="clippath-3">
      <rect class="st6" x="122.5" y="338.1" width="43.2" height="66.1"/>
    </clipPath>
    <clipPath id="clippath-4">
      <rect class="st6" x="169.1" y="338.1" width="56.5" height="66.1"/>
    </clipPath>
    <clipPath id="clippath-5">
      <rect class="st6" x="229.2" y="338.1" width="83.1" height="66.1"/>
    </clipPath>
  </defs>
  <rect class="st9" x="94.2" y="12.2" width="62" height="11.5"/>
  <g class="st3">
    <text class="st1" transform="translate(112.4 20.5)"><tspan x="0" y="0">Antônio</tspan></text>
  </g>
  <rect class="st9" x="164.2" y="12.2" width="62" height="11.5"/>
  <g class="st3">
    <text class="st1" transform="translate(185.7 20.5)"><tspan x="0" y="0">Isaura</tspan></text>
  </g>
  <path class="st8" d="M125.2,23.7v3l35,2"/>
  <path class="st8" d="M195.2,23.7v3l-35,2"/>
  <path class="st8" d="M160.2,28.7v15H28.8v274.9"/>
  <g>
    <line class="st8" x1="28.8" y1="58.7" x2="43.4" y2="58.7"/>
    <rect class="st9" x="43.4" y="53" width="256.9" height="11.4"/>
    <g class="st3">
      <text class="st2" transform="translate(53.2 60.6)"><tspan x="0" y="0">Aniceto de Araújo Pires</tspan></text>
      <text class="st4" transform="translate(118.4 60.6)"><tspan x="0" y="0" xml:space="preserve"> (Cetinho) / Tereza Barbosa Pires</tspan></text>
    </g>
  </g>
  <g>
    <line class="st8" x1="28.8" y1="82.2" x2="43.4" y2="82.2"/>
    <rect class="st9" x="43.4" y="76.6" width="256.9" height="11.4"/>
    <g class="st3">
      <text class="st2" transform="translate(53.2 84.1)"><tspan x="0" y="0">Merita Araújo da Silva</tspan></text>
      <text class="st4" transform="translate(115.5 84.1)"><tspan x="0" y="0" xml:space="preserve"> (Doninha) / Cantidio Pereira da Silva</tspan></text>
    </g>
  </g>
  <g>
    <line class="st8" x1="28.8" y1="105.9" x2="43.4" y2="105.9"/>
    <rect class="st9" x="43.4" y="100.2" width="256.9" height="11.4"/>
    <g class="st3">
      <text class="st2" transform="translate(53.2 107.8)"><tspan x="0" y="0">Anália Pires Fernandes</tspan></text>
      <text class="st4" transform="translate(116.1 107.8)"><tspan x="0" y="0" xml:space="preserve"> (Mocinha) / Olavo Fernandes do Nascimento</tspan></text>
    </g>
  </g>
  <g>
    <line class="st8" x1="28.8" y1="129.5" x2="43.4" y2="129.5"/>
    <rect class="st9" x="43.4" y="123.8" width="256.9" height="11.4"/>
    <g class="st3">
      <text class="st2" transform="translate(53.2 131.4)"><tspan x="0" y="0">José de Araújo Pires</tspan></text>
      <text class="st4" transform="translate(108.4 131.4)"><tspan x="0" y="0" xml:space="preserve"> (Zeca Pires) / Raimunda Lopes Pires</tspan></text>
    </g>
  </g>
  <g>
    <line class="st8" x1="28.8" y1="153.1" x2="43.4" y2="153.1"/>
    <rect class="st9" x="43.4" y="147.4" width="256.9" height="11.4"/>
    <g class="st3">
      <text class="st2" transform="translate(53.2 155)"><tspan x="0" y="0">Juliana Pires de Araújo</tspan></text>
      <text class="st4" transform="translate(116.8 155)"><tspan x="0" y="0" xml:space="preserve"> (Pirrincha) / Leontino Gomes</tspan></text>
    </g>
  </g>
  <g>
    <line class="st8" x1="28.8" y1="176.7" x2="43.4" y2="176.7"/>
    <rect class="st9" x="43.4" y="171" width="256.9" height="11.4"/>
    <g class="st3">
      <text class="st2" transform="translate(53.2 178.6)"><tspan x="0" y="0">Manoel de Araújo Pires</tspan></text>
      <text class="st4" transform="translate(118.2 178.6)"><tspan x="0" y="0" xml:space="preserve"> (Daozinho) / Nazur Cheim Pires</tspan></text>
    </g>
  </g>
  <g>
    <line class="st8" x1="28.8" y1="200.2" x2="43.4" y2="200.2"/>
    <rect class="st9" x="43.4" y="194.6" width="256.9" height="11.4"/>
    <g class="st3">
      <text class="st2" transform="translate(53.2 202.1)"><tspan x="0" y="0">Niltácio Pires de Araújo</tspan></text>
      <text class="st4" transform="translate(119.4 202.1)"><tspan x="0" y="0" xml:space="preserve"> / Magnólia Viana de Araújo</tspan></text>
    </g>
  </g>
  <g>
    <line class="st8" x1="28.8" y1="223.9" x2="43.4" y2="223.9"/>
    <rect class="st9" x="43.4" y="218.2" width="256.9" height="11.4"/>
    <g class="st3">
      <text class="st2" transform="translate(53.2 225.8)"><tspan x="0" y="0">Jaime Pires de Araújo</tspan></text>
      <text class="st4" transform="translate(112.9 225.8)"><tspan x="0" y="0" xml:space="preserve"> / Berenice Côrrea de Araújo</tspan></text>
    </g>
  </g>
  <g>
    <line class="st8" x1="28.8" y1="247.5" x2="43.4" y2="247.5"/>
    <rect class="st9" x="43.4" y="241.8" width="256.9" height="11.4"/>
    <g class="st3">
      <text class="st2" transform="translate(53.2 249.4)"><tspan x="0" y="0">Maria Luziêta Pires Mourão</tspan></text>
      <text class="st4" transform="translate(131 249.4)"><tspan x="0" y="0" xml:space="preserve"> (Maróca) / Luiz Jales Mourão</tspan></text>
    </g>
  </g>
  <g>
    <line class="st8" x1="28.8" y1="271.1" x2="43.4" y2="271.1"/>
    <rect class="st9" x="43.4" y="265.4" width="256.9" height="11.4"/>
    <g class="st3">
      <text class="st2" transform="translate(53.2 273)"><tspan x="0" y="0">Marisa Pires Pereira</tspan></text>
      <text class="st4" transform="translate(108.4 273)"><tspan x="0" y="0" xml:space="preserve"> / Natal José Pereira</tspan></text>
    </g>
  </g>
  <g>
    <line class="st8" x1="28.8" y1="294.7" x2="43.4" y2="294.7"/>
    <rect class="st9" x="43.4" y="289" width="256.9" height="11.4"/>
    <g class="st3">
      <text class="st2" transform="translate(53.2 296.6)"><tspan x="0" y="0">Benito Pires de Araújo</tspan></text>
      <text class="st4" transform="translate(115.7 296.6)"><tspan x="0" y="0" xml:space="preserve"> / Natércia Frazão de Araújo</tspan></text>
    </g>
  </g>
  <g>
    <line class="st8" x1="28.8" y1="318.2" x2="43.4" y2="318.2"/>
    <rect class="st9" x="43.4" y="312.6" width="256.9" height="11.4"/>
    <g class="st3">
      <text class="st2" transform="translate(53.2 320.1)"><tspan x="0" y="0">Valmir Pires de Araújo</tspan></text>
      <text class="st4" transform="translate(115.7 320.1)"><tspan x="0" y="0" xml:space="preserve"> / Ana Alves Silva Pires</tspan></text>
    </g>
  </g>
  <rect class="st7" x="8" y="338.1" width="36.8" height="66.1"/>
  <g class="st14">
    <image class="st3" width="103" height="185" transform="translate(8 338.1) scale(.4)" xlink:href="genogramafilhosantonioisaura-1.png"/>
  </g>
  <rect class="st7" x="48.3" y="338.1" width="35.7" height="66.1"/>
  <g class="st10">
    <image class="st3" width="752" height="1391" transform="translate(48.3 338.1) scale(0)" xlink:href="genogramafilhosantonioisaura-2.png"/>
  </g>
  <rect class="st7" x="87.5" y="338.1" width="31.5" height="66.1"/>
  <g class="st13">
    <image class="st3" width="688" height="1444" transform="translate(87.5 338.1) scale(0)" xlink:href="genogramafilhosantonioisaura-3.png"/>
  </g>
  <rect class="st7" x="122.5" y="338.1" width="43.2" height="66.1"/>
  <g class="st12">
    <image class="st3" width="504" height="771" transform="translate(122.5 338.1) scale(0)" xlink:href="genogramafilhosantonioisaura-4.png"/>
  </g>
  <rect class="st7" x="169.1" y="338.1" width="56.5" height="66.1"/>
  <g class="st0">
    <image class="st3" width="604" height="706" transform="translate(169.1 338.1) scale(0)" xlink:href="genogramafilhosantonioisaura-5.png"/>
  </g>
  <rect class="st7" x="229.2" y="338.1" width="83.1" height="66.1"/>
  <g class="st11">
    <image class="st3" width="1148" height="912" transform="translate(229.1 338.1) scale(0)" xlink:href="genogramafilhosantonioisaura-6.png"/>
  </g>
  <g class="st3">
    <text class="st5" transform="translate(19.3 420.7)"><tspan x="0" y="0">Merita</tspan></text>
  </g>
  <g class="st3">
    <text class="st5" transform="translate(59.1 420.7)"><tspan x="0" y="0">Anália</tspan></text>
  </g>
  <g class="st3">
    <text class="st5" transform="translate(95.6 420.7)"><tspan x="0" y="0">Juliana</tspan></text>
  </g>
  <g class="st3">
    <text class="st5" transform="translate(128.9 420.7)"><tspan x="0" y="0">Maria Luziêta</tspan></text>
  </g>
  <g class="st3">
    <text class="st5" transform="translate(190 420.7)"><tspan x="0" y="0">Marisa</tspan></text>
  </g>
  <g class="st3">
    <text class="st5" transform="translate(245.6 420.7)"><tspan x="0" y="0">Valmir, Benito, Manoel,</tspan></text>
  </g>
  <g class="st3">
    <text class="st5" transform="translate(241 426.1)"><tspan x="0" y="0">Aniceto, José, Niltácio, Jaime</tspan></text>
  </g>
</svg>