<?xml version="1.0" encoding="UTF-8"?>
<svg id="Layer_1" xmlns="http://www.w3.org/2000/svg" version="1.1" viewBox="0 0 320.3 238.5">
  <defs>
    <style>
      .sub { font-family: AGaramondPro-Italic, "Adobe Garamond Pro"; font-size: 8.5px; font-style: italic; }
      .cb  { font-family: AGaramondPro-Bold, "Adobe Garamond Pro"; font-size: 9px; font-weight: 700; }
      .nm { font-family: AGaramondPro-Bold, "Adobe Garamond Pro"; font-size: 8px; font-weight: 700; }
      .sp { font-family: AGaramondPro-BoldItalic, "Adobe Garamond Pro"; font-size: 8px; font-style: italic; font-weight: 700; }
      .box { fill: #fff; stroke: #000; stroke-width: .7px; stroke-miterlimit: 11.3; }
      .ln { fill: none; stroke: #000; stroke-width: 1.2px; stroke-miterlimit: 11.3; }
    </style>
  </defs>
  <text class="sub" transform="translate(160.2 12.0)" text-anchor="middle"><tspan x="0" y="0">(Denominados Tronco)</tspan></text>
  <rect class="box" x="79.2" y="21.0" width="76" height="16"/>
  <text class="cb" transform="translate(117.2 32.1)" text-anchor="middle"><tspan x="0" y="0">José</tspan></text>
  <rect class="box" x="165.2" y="21.0" width="76" height="16"/>
  <text class="cb" transform="translate(203.2 32.1)" text-anchor="middle"><tspan x="0" y="0">Juliana</tspan></text>
  <path class="ln" d="M117.2,37.0 v4 l43.0,4"/>
  <path class="ln" d="M203.2,37.0 v4 l-43.0,4"/>
  <path class="ln" d="M160.2,43.0v10.0H28.8v168.0"/>
  <line class="ln" x1="28.8" y1="61.0" x2="43.4" y2="61.0"/>
  <rect class="box" x="43.4" y="53.5" width="256.9" height="15.0"/>
  <text transform="translate(53.2 63.9)"><tspan class="nm" x="0" y="0">João da Silva Pires</tspan><tspan class="sp"> (Xileu)</tspan></text>
  <line class="ln" x1="28.8" y1="80.5" x2="43.4" y2="80.5"/>
  <rect class="box" x="43.4" y="73.0" width="256.9" height="15.0"/>
  <text class="nm" transform="translate(53.2 83.4)"><tspan x="0" y="0">Isaura da Silva Pires</tspan></text>
  <line class="ln" x1="28.8" y1="100.0" x2="43.4" y2="100.0"/>
  <rect class="box" x="43.4" y="92.5" width="256.9" height="15.0"/>
  <text class="nm" transform="translate(53.2 102.9)"><tspan x="0" y="0">Gerim da Silva Pires</tspan></text>
  <line class="ln" x1="28.8" y1="119.5" x2="43.4" y2="119.5"/>
  <rect class="box" x="43.4" y="112.0" width="256.9" height="15.0"/>
  <text class="nm" transform="translate(53.2 122.4)"><tspan x="0" y="0">Nilo da Silva Pires</tspan></text>
  <line class="ln" x1="28.8" y1="139.0" x2="43.4" y2="139.0"/>
  <rect class="box" x="43.4" y="131.5" width="256.9" height="15.0"/>
  <text class="nm" transform="translate(53.2 141.9)"><tspan x="0" y="0">Isac da Silva Pires</tspan></text>
  <line class="ln" x1="28.8" y1="158.5" x2="43.4" y2="158.5"/>
  <rect class="box" x="43.4" y="151.0" width="256.9" height="15.0"/>
  <text class="nm" transform="translate(53.2 161.4)"><tspan x="0" y="0">Hermes da Silva Pires</tspan></text>
  <line class="ln" x1="28.8" y1="178.0" x2="43.4" y2="178.0"/>
  <rect class="box" x="43.4" y="170.5" width="256.9" height="15.0"/>
  <text class="nm" transform="translate(53.2 180.9)"><tspan x="0" y="0">Genésio da Silva Pires</tspan></text>
  <line class="ln" x1="28.8" y1="197.5" x2="43.4" y2="197.5"/>
  <rect class="box" x="43.4" y="190.0" width="256.9" height="15.0"/>
  <text class="nm" transform="translate(53.2 200.4)"><tspan x="0" y="0">Mercíades da Silva Pires</tspan></text>
  <line class="ln" x1="28.8" y1="217.0" x2="43.4" y2="217.0"/>
  <rect class="box" x="43.4" y="209.5" width="256.9" height="15.0"/>
  <text class="nm" transform="translate(53.2 219.9)"><tspan x="0" y="0">Vercilia da Silva Pires</tspan></text>
</svg>