<?xml version="1.0" encoding="UTF-8"?>
<svg id="Layer_1" xmlns="http://www.w3.org/2000/svg" version="1.1" viewBox="0 0 320.3 490.4">
  <defs>
    <style>
      .hdr { font-family: AGaramondPro-Italic, "Adobe Garamond Pro"; font-size: 8px; font-style: italic; font-weight: 700; }
      .sec { font-family: AGaramondPro-Bold, "Adobe Garamond Pro"; font-size: 9.8px; font-weight: 700; }
      .ttl { font-family: AGaramondPro-Bold, "Adobe Garamond Pro"; font-size: 11.5px; font-weight: 700; }
      .nm { font-family: AGaramondPro-Bold, "Adobe Garamond Pro"; font-size: 7.4px; font-weight: 700; }
      .sp { font-family: AGaramondPro-BoldItalic, "Adobe Garamond Pro"; font-size: 7.4px; font-style: italic; font-weight: 700; }
      .box { fill: #fff; stroke: #000; stroke-width: .6px; stroke-miterlimit: 11.3; }
      .ln { fill: none; stroke: #000; stroke-width: 1.1px; stroke-miterlimit: 11.3; }
    </style>
  </defs>
  <text class="ttl" transform="translate(160.2 14.0)" text-anchor="middle"><tspan x="0" y="0">Netos de Ênnio e Lubelia</tspan></text>
  <text class="hdr" transform="translate(20 37.2)"><tspan x="0" y="0">Filhos de Siderea e Belarmino</tspan></text>
  <path class="ln" d="M28.8,40.2v66.5"/>
  <line class="ln" x1="28.8" y1="56.7" x2="43.4" y2="56.7"/>
  <rect class="box" x="43.4" y="48.3" width="256.9" height="16.9"/>
  <text class="nm" transform="translate(53.2 59.4)"><tspan x="0" y="0">Àureanilma Pires</tspan></text>
  <line class="ln" x1="28.8" y1="81.7" x2="43.4" y2="81.7"/>
  <rect class="box" x="43.4" y="73.3" width="256.9" height="16.9"/>
  <text class="nm" transform="translate(53.2 84.4)"><tspan x="0" y="0">Josilena Pires</tspan></text>
  <line class="ln" x1="28.8" y1="106.7" x2="43.4" y2="106.7"/>
  <rect class="box" x="43.4" y="98.3" width="256.9" height="16.9"/>
  <text class="nm" transform="translate(53.2 109.4)"><tspan x="0" y="0">Claudia Pires</tspan></text>
  <text class="hdr" transform="translate(20 127.6)"><tspan x="0" y="0">Filhos de Erasmo e Sandra</tspan></text>
  <path class="ln" d="M28.8,130.6v191.5"/>
  <line class="ln" x1="28.8" y1="147.1" x2="43.4" y2="147.1"/>
  <rect class="box" x="43.4" y="138.7" width="256.9" height="16.9"/>
  <text class="nm" transform="translate(53.2 149.8)"><tspan x="0" y="0">Ênio Tasso de Monção Pires Neto (faleceu ainda jovem)</tspan></text>
  <line class="ln" x1="28.8" y1="172.1" x2="43.4" y2="172.1"/>
  <rect class="box" x="43.4" y="163.7" width="256.9" height="16.9"/>
  <text class="nm" transform="translate(53.2 174.8)"><tspan x="0" y="0">Oales Fabiano Pinheiro Pires</tspan></text>
  <line class="ln" x1="28.8" y1="197.1" x2="43.4" y2="197.1"/>
  <rect class="box" x="43.4" y="188.6" width="256.9" height="16.9"/>
  <text class="nm" transform="translate(53.2 199.8)"><tspan x="0" y="0">Andreia Cristine Pinheiro Pires</tspan></text>
  <line class="ln" x1="28.8" y1="222.1" x2="43.4" y2="222.1"/>
  <rect class="box" x="43.4" y="213.6" width="256.9" height="16.9"/>
  <text class="nm" transform="translate(53.2 224.8)"><tspan x="0" y="0">Leandro Rodrigo Pinheiro Pires</tspan></text>
  <line class="ln" x1="28.8" y1="247.1" x2="43.4" y2="247.1"/>
  <rect class="box" x="43.4" y="238.6" width="256.9" height="16.9"/>
  <text class="nm" transform="translate(53.2 249.8)"><tspan x="0" y="0">Luciano Gabriel Pinheiro Pires</tspan></text>
  <line class="ln" x1="28.8" y1="272.0" x2="43.4" y2="272.0"/>
  <rect class="box" x="43.4" y="263.6" width="256.9" height="16.9"/>
  <text class="nm" transform="translate(53.2 274.7)"><tspan x="0" y="0">Laerte Matheus Pinheiro Pires</tspan></text>
  <line class="ln" x1="28.8" y1="297.0" x2="43.4" y2="297.0"/>
  <rect class="box" x="43.4" y="288.6" width="256.9" height="16.9"/>
  <text class="nm" transform="translate(53.2 299.7)"><tspan x="0" y="0">Luciane Maria Pinheiro Pires</tspan></text>
  <line class="ln" x1="28.8" y1="322.0" x2="43.4" y2="322.0"/>
  <rect class="box" x="43.4" y="313.6" width="256.9" height="16.9"/>
  <text class="nm" transform="translate(53.2 324.7)"><tspan x="0" y="0">Cleber Raphael Pinheiro Pires</tspan></text>
  <text class="sec" transform="translate(20 345.3)"><tspan x="0" y="0">Bisnetos de Ênnio e Lubelia</tspan></text>
  <text class="hdr" transform="translate(20 362.5)"><tspan x="0" y="0">Netos de Erasmo e Sandra</tspan></text>
  <path class="ln" d="M28.8,365.5v91.5"/>
  <line class="ln" x1="28.8" y1="382.0" x2="43.4" y2="382.0"/>
  <rect class="box" x="43.4" y="373.6" width="256.9" height="16.9"/>
  <text class="nm" transform="translate(53.2 384.7)"><tspan x="0" y="0">Leticia Pires</tspan></text>
  <line class="ln" x1="28.8" y1="407.0" x2="43.4" y2="407.0"/>
  <rect class="box" x="43.4" y="398.5" width="256.9" height="16.9"/>
  <text class="nm" transform="translate(53.2 409.7)"><tspan x="0" y="0">Eleonora Beatriz Pires</tspan></text>
  <line class="ln" x1="28.8" y1="432.0" x2="43.4" y2="432.0"/>
  <rect class="box" x="43.4" y="423.5" width="256.9" height="16.9"/>
  <text class="nm" transform="translate(53.2 434.7)"><tspan x="0" y="0">Mendonza Pires</tspan></text>
  <line class="ln" x1="28.8" y1="457.0" x2="43.4" y2="457.0"/>
  <rect class="box" x="43.4" y="448.5" width="256.9" height="16.9"/>
  <text class="nm" transform="translate(53.2 459.7)"><tspan x="0" y="0">Jessica Fernandes Pires</tspan></text>
</svg>